<svg xmlns="http://www.w3.org/2000/svg" viewBox="0 0 800 600" preserveAspectRatio="xMidYMid slice" role="img" aria-label="Retrato antiguo del fundador Don José, 1962">
  <defs>
    <radialGradient id="bg" cx="0.5" cy="0.4" r="0.75"><stop offset="0" stop-color="#3a2a18"/><stop offset="1" stop-color="#160f08"/></radialGradient>
    <radialGradient id="sepia" cx="0.5" cy="0.42" r="0.65"><stop offset="0" stop-color="#b79463"/><stop offset="0.6" stop-color="#8a6a42"/><stop offset="1" stop-color="#4e3a24"/></radialGradient>
    <linearGradient id="marco" x1="0" y1="0" x2="1" y2="1"><stop offset="0" stop-color="#e0b366"/><stop offset="0.5" stop-color="#9c7233"/><stop offset="1" stop-color="#6b4a20"/></linearGradient>
  </defs>
  <rect width="800" height="600" fill="url(#bg)"/>
  <ellipse cx="400" cy="290" rx="238" ry="262" fill="none" stroke="url(#marco)" stroke-width="26"/>
  <ellipse cx="400" cy="290" rx="218" ry="242" fill="none" stroke="#3a2712" stroke-width="4"/>
  <clipPath id="oval"><ellipse cx="400" cy="290" rx="210" ry="234"/></clipPath>
  <g clip-path="url(#oval)">
    <rect x="180" y="40" width="440" height="510" fill="url(#sepia)"/>
    <path d="M250 560 Q400 360 550 560 Z" fill="#3a2a18"/>
    <path d="M300 560 L300 470 Q400 420 500 470 L500 560 Z" fill="#43301c"/>
    <path d="M360 470 L440 470 L430 430 L370 430 Z" fill="#c8a877"/>
    <circle cx="400" cy="300" r="82" fill="#a07f52"/>
    <path d="M330 300 a70 78 0 0 1 140 0 l-8 60 a62 66 0 0 1 -124 0 Z" fill="#5a4226"/>
    <ellipse cx="400" cy="238" rx="150" ry="40" fill="#2e2013"/>
    <path d="M300 238 Q400 150 500 238 Z" fill="#2e2013"/>
    <ellipse cx="400" cy="332" rx="46" ry="18" fill="#43301c"/>
    <rect x="362" y="320" width="76" height="12" rx="6" fill="#2e2013"/>
  </g>
  <rect x="300" y="512" width="200" height="46" rx="6" fill="#2e2013" stroke="url(#marco)" stroke-width="3"/>
  <text x="400" y="544" font-family="Georgia, 'Times New Roman', serif" font-size="30" font-weight="bold" letter-spacing="4" text-anchor="middle" fill="#e0c091">1962</text>
  <rect width="800" height="600" fill="#000000" opacity="0" />
  <radialGradient id="vig" cx="0.5" cy="0.45" r="0.7"><stop offset="0.6" stop-color="#000000" stop-opacity="0"/><stop offset="1" stop-color="#000000" stop-opacity="0.6"/></radialGradient>
  <rect width="800" height="600" fill="url(#vig)"/>
</svg>
